Coordinates
version=1
nRows=21
nColumns=22
inDegrees=yes

Units are S.I. units (second, meters, Newtons, ...)
If the header above contains a line with 'inDegrees', this indicates whether rotational values are in degrees (yes) or radians (no).

endheader
time	pelvis_tilt	pelvis_list	pelvis_rotation	pelvis_tx	pelvis_ty	pelvis_tz	hip_flexion_r	hip_adduction_r	hip_rotation_r	knee_angle_r	ankle_angle_r	subtalar_angle_r	hip_flexion_l	hip_adduction_l	hip_rotation_l	knee_angle_l	ankle_angle_l	subtalar_angle_l	lumbar_extension	lumbar_bending	lumbar_rotation
      3.48000000	      4.00508939	     -0.59547120	    -30.38999860	     -0.18579372	      0.90628893	     -0.08450828	      9.68275363	     -6.29526175	     -1.51260170	    -53.33813478	     15.28833835	    -12.75041621	      7.07316437	      3.00378990	    -13.04946412	    -22.14763478	     13.03164047	     -7.97288097	     -9.69560898	     -2.40249363	      5.48057857
      3.49000000	      3.98975883	     -0.74783443	    -30.18216829	     -0.18116573	      0.90679769	     -0.08355362	     10.21337115	     -6.21961178	     -1.99110500	    -52.26506085	     15.75351582	    -12.94133011	      6.56258819	      2.98366978	    -12.90849734	    -21.91551903	     13.19840443	     -7.95405020	     -9.79177531	     -2.22899699	      5.25620052
      3.50000000	      3.98346359	     -0.89951640	    -29.96157550	     -0.17659518	      0.90725368	     -0.08256409	     10.69785759	     -6.14649370	     -2.49743683	    -51.08263605	     16.17117875	    -13.07412074	      6.05033149	      2.95898863	    -12.76496227	    -21.68902212	     13.37857557	     -7.92928229	     -9.90455896	     -2.06308132	      5.02035537
      3.51000000	      3.98644208	     -1.05301517	    -29.75153611	     -0.17209446	      0.90766346	     -0.08150060	     11.13948717	     -6.07523991	     -3.02426528	    -49.80576931	     16.53445760	    -13.17314292	      5.53566022	      2.92742637	    -12.61455286	    -21.47264793	     13.55937192	     -7.89845020	    -10.02846309	     -1.91033156	      4.81594868
      3.52000000	      3.99486835	     -1.20059119	    -29.54118427	     -0.16765545	      0.90801496	     -0.08040129	     11.54819203	     -6.01089296	     -3.56750101	    -48.45474772	     16.83308560	    -13.22359366	      5.02793630	      2.89334246	    -12.48021221	    -21.26553601	     13.75198260	     -7.86010309	    -10.16055231	     -1.76968096	      4.63038747
      3.53000000	      4.01321673	     -1.35077304	    -29.33481583	     -0.16328005	      0.90832173	     -0.07923050	     11.91302819	     -5.94785664	     -4.13367751	    -47.03931135	     17.08007773	    -13.21523749	      4.52059974	      2.84944469	    -12.34946466	    -21.07655179	     13.96086896	     -7.81283034	    -10.30499193	     -1.63910915	      4.45427793
      3.54000000	      4.03798737	     -1.49788836	    -29.13107432	     -0.15895527	      0.90858062	     -0.07801734	     12.24334247	     -5.88813215	     -4.71203898	    -45.57308240	     17.26789011	    -13.13609732	      4.01602810	      2.80200978	    -12.23411627	    -20.89683083	     14.17930824	     -7.75736144	    -10.45672982	     -1.51702506	      4.29614838
      3.55000000	      4.06847516	     -1.64321523	    -28.92781614	     -0.15467197	      0.90879746	     -0.07675652	     12.53517457	     -5.82789750	     -5.30151940	    -44.05912992	     17.40800458	    -12.97707882	      3.51507011	      2.74861499	    -12.12833926	    -20.72932064	     14.40926153	     -7.69426231	    -10.61373625	     -1.40000025	      4.14482878
      3.56000000	      4.11801020	     -1.79397820	    -28.72785404	     -0.15041250	      0.90900311	     -0.07544305	     12.77071941	     -5.77198299	     -5.91932739	    -42.50173127	     17.48897623	    -12.69614952	      2.99483486	      2.69387081	    -12.01545661	    -20.56497309	     14.62910783	     -7.61845722	    -10.79135675	     -1.29005894	      4.02971609
      3.57000000	      4.17344670	     -1.94032736	    -28.53559612	     -0.14617228	      0.90917320	     -0.07406445	     12.97072527	     -5.71410000	     -6.54799204	    -40.90840960	     17.52981812	    -12.28120792	      2.47120392	      2.63832471	    -11.90839570	    -20.40303493	     14.84712009	     -7.53517415	    -10.96705477	     -1.18979694	      3.92069721
      3.58000000	      4.23083180	     -2.08498643	    -28.34237989	     -0.14194091	      0.90930447	     -0.07264272	     13.13468278	     -5.64869397	     -7.19585253	    -39.27881993	     17.54638461	    -11.75451964	      1.95055123	      2.57771963	    -11.80059793	    -20.25031985	     15.07031346	     -7.45001412	    -11.13967282	     -1.08841125	      3.81620207
      3.59000000	      4.27018697	     -2.23570513	    -28.12835264	     -0.13770975	      0.90937370	     -0.07120717	     13.27381681	     -5.55950015	     -7.88546695	    -37.61244899	     17.51048050	    -11.29814278	      1.46388851	      2.48765186	    -11.70255583	    -20.13538398	     15.34371416	     -7.37705468	    -11.29404621	     -0.95961825	      3.66700082
      3.60000000	      4.34699335	     -2.37227697	    -27.94550452	     -0.13347557	      0.90945866	     -0.06967506	     13.35880680	     -5.48467250	     -8.57298021	    -35.92122472	     17.46199750	    -10.49049499	      0.91568801	      2.43343294	    -11.59404634	    -19.96704967	     15.53769799	     -7.27319719	    -11.47134685	     -0.87523296	      3.60345765
      3.61000000	      4.39792770	     -2.51191514	    -27.74015957	     -0.12923581	      0.90947206	     -0.06812886	     13.43222179	     -5.38542692	     -9.33003173	    -34.20214871	     17.33698244	     -9.86752959	      0.40991395	      2.34861104	    -11.49045469	    -19.83759457	     15.78788591	     -7.18328329	    -11.61988175	     -0.76451381	      3.52291969
      3.62000000	      4.44514816	     -2.64148398	    -27.54812826	     -0.12501971	      0.90944116	     -0.06651701	     13.48649455	     -5.25927508	    -10.04684866	    -32.45574555	     17.19778547	     -9.10579329	     -0.09153160	      2.26336263	    -11.39992309	    -19.70215154	     16.01893598	     -7.07154540	    -11.75709403	     -0.66193033	      3.44561387
      3.63000000	      4.47575649	     -2.76243530	    -27.35925858	     -0.12083481	      0.90935044	     -0.06484830	     13.53395318	     -5.09940478	    -10.73173541	    -30.68473542	     17.02357170	     -8.30668847	     -0.56770018	      2.16521896	    -11.32666818	    -19.57675653	     16.24962588	     -6.94307008	    -11.87136057	     -0.55782355	      3.36435907
      3.64000000	      4.48228202	     -2.87590741	    -27.17451616	     -0.11668327	      0.90918432	     -0.06312245	     13.58901142	     -4.90689780	    -11.39313442	    -28.90633060	     16.81364995	     -7.54445363	     -1.00821345	      2.04926885	    -11.27603057	    -19.46845297	     16.49795683	     -6.79970786	    -11.95757782	     -0.45202015	      3.31459426
      3.65000000	      4.46978993	     -2.97258386	    -27.00418622	     -0.11258250	      0.90895324	     -0.06133083	     13.64987709	     -4.67817523	    -11.94281868	    -27.11234888	     16.58803511	     -6.69660741	     -1.42044558	      1.93092846	    -11.23986769	    -19.36127444	     16.72573525	     -6.62140731	    -12.01695819	     -0.35131921	      3.26220496
      3.66000000	      4.43147713	     -3.05698657	    -26.84145707	     -0.10853570	      0.90864435	     -0.05948147	     13.72736016	     -4.41664438	    -12.40075323	    -25.32207591	     16.34888431	     -5.86723411	     -1.78781579	      1.79961734	    -11.22676044	    -19.27633067	     16.96189875	     -6.42133039	    -12.04771714	     -0.25350258	      3.22149463
      3.67000000	      4.36892660	     -3.12897605	    -26.68684242	     -0.10452713	      0.90826282	     -0.05756358	     13.81936729	     -4.12464394	    -12.74387413	    -23.54155778	     16.11009378	     -5.04361120	     -2.11699042	      1.65836297	    -11.23119851	    -19.20722891	     17.20174851	     -6.19849354	    -12.04780111	     -0.15793533	      3.18873998
      3.68000000	      4.28765377	     -3.18326191	    -26.54471337	     -0.10056929	      0.90781364	     -0.05557877	     13.93013427	     -3.81677401	    -12.96586635	    -21.78666755	     15.86911924	     -4.20775638	     -2.40793358	      1.51681595	    -11.24699158	    -19.15666496	     17.43100562	     -5.95288386	    -12.02362983	     -0.07547720	      3.16668541
